#tb 0: 1/25
#media_type 0: video
#codec_id 0: rawvideo
#dimensions 0: 176x144
#sar 0: 0/1
0,          0,          0,        1,    38016, 0x705f2f41
0,          1,          1,        1,    38016, 0xa76d1766
0,          2,          2,        1,    38016, 0xf367e6f4
0,          3,          3,        1,    38016, 0xdce8a69a
0,          4,          4,        1,    38016, 0xda9d986e
0,          5,          5,        1,    38016, 0x50117ea5
0,          6,          6,        1,    38016, 0x07a848eb
0,          7,          7,        1,    38016, 0x28ab4f59
0,          8,          8,        1,    38016, 0xf6913e4c
0,          9,          9,        1,    38016, 0x3daa3500
0,         10,         10,        1,    38016, 0xe9f67703
0,         11,         11,        1,    38016, 0x9a5289e6
0,         12,         12,        1,    38016, 0x9efd705f
0,         13,         13,        1,    38016, 0x1193b01d
0,         14,         14,        1,    38016, 0x30a5acd7
0,         15,         15,        1,    38016, 0x7e3da07d
0,         16,         16,        1,    38016, 0x0f85afc6
0,         17,         17,        1,    38016, 0x8b7ba455
0,         18,         18,        1,    38016, 0xac327dfb
0,         19,         19,        1,    38016, 0x3eee7fdb
0,         20,         20,        1,    38016, 0x37fa626b
0,         21,         21,        1,    38016, 0x2c4f2501
0,         22,         22,        1,    38016, 0xa25a239a
0,         23,         23,        1,    38016, 0xe69b2327
0,         24,         24,        1,    38016, 0x6bd6164e
0,         25,         25,        1,    38016, 0xae9c2daa
0,         26,         26,        1,    38016, 0xe115331d
0,         27,         27,        1,    38016, 0xde8f2833
0,         28,         28,        1,    38016, 0xd0b45915
0,         29,         29,        1,    38016, 0x3ab16824
0,         30,         30,        1,    38016, 0x4df45e8d
0,         31,         31,        1,    38016, 0x48569b82
0,         32,         32,        1,    38016, 0x75c5b1ee
0,         33,         33,        1,    38016, 0x64e5a3ba
0,         34,         34,        1,    38016, 0x3190d133
0,         35,         35,        1,    38016, 0x4825ce86
0,         36,         36,        1,    38016, 0x8f85ab8e
0,         37,         37,        1,    38016, 0x3fb1cbc5
0,         38,         38,        1,    38016, 0x2b2cbe7d
0,         39,         39,        1,    38016, 0xa905a6a6
0,         40,         40,        1,    38016, 0x6365c188
0,         41,         41,        1,    38016, 0xff23c08d
0,         42,         42,        1,    38016, 0x73edada6
0,         43,         43,        1,    38016, 0x6be0b8a9
0,         44,         44,        1,    38016, 0x604bb6c9
0,         45,         45,        1,    38016, 0x62468a3b
0,         46,         46,        1,    38016, 0x994aad7a
0,         47,         47,        1,    38016, 0xfee1b59e
0,         48,         48,        1,    38016, 0xf722aa78
0,         49,         49,        1,    38016, 0x0ddfbf68
0,         50,         50,        1,    38016, 0x510ab7b1
0,         51,         51,        1,    38016, 0x156ca919
0,         52,         52,        1,    38016, 0xb176b488
0,         53,         53,        1,    38016, 0xd70cb8f8
0,         54,         54,        1,    38016, 0x3844b2d2
0,         55,         55,        1,    38016, 0x0ed8c6ee
0,         56,         56,        1,    38016, 0x0c6ac5ff
0,         57,         57,        1,    38016, 0x1284c442
0,         58,         58,        1,    38016, 0x0486d06c
0,         59,         59,        1,    38016, 0x0d42d1c1
0,         60,         60,        1,    38016, 0xd24297f3
0,         61,         61,        1,    38016, 0xe05cab59
0,         62,         62,        1,    38016, 0x12f1921f
0,         63,         63,        1,    38016, 0x0dc6403e
0,         64,         64,        1,    38016, 0x277f593c
0,         65,         65,        1,    38016, 0xfb7c81f8
0,         66,         66,        1,    38016, 0xb31b90b0
0,         67,         67,        1,    38016, 0x8be3e8ae
0,         68,         68,        1,    38016, 0x9aaa1ff1
0,         69,         69,        1,    38016, 0x4e6832b9
0,         70,         70,        1,    38016, 0x93fd6a5e
0,         71,         71,        1,    38016, 0xd9438f08
0,         72,         72,        1,    38016, 0x5e41b067
0,         73,         73,        1,    38016, 0xee80f32a
0,         74,         74,        1,    38016, 0x75632fe3
0,         75,         75,        1,    38016, 0xc0a93ec1
0,         76,         76,        1,    38016, 0x4e3e80c4
0,         77,         77,        1,    38016, 0x9e5398d6
0,         78,         78,        1,    38016, 0xd20aac32
0,         79,         79,        1,    38016, 0xacf5c5da
0,         80,         80,        1,    38016, 0xbe6bca1a
0,         81,         81,        1,    38016, 0x098bdac2
0,         82,         82,        1,    38016, 0xe706e491
0,         83,         83,        1,    38016, 0xcda7d8ee
0,         84,         84,        1,    38016, 0xb1d4d3f4
0,         85,         85,        1,    38016, 0x3e20d6cd
0,         86,         86,        1,    38016, 0xf368e66a
0,         87,         87,        1,    38016, 0xbfbee5b1
0,         88,         88,        1,    38016, 0xb580ec3d
0,         89,         89,        1,    38016, 0xce8dec65
0,         90,         90,        1,    38016, 0xb6fda1c2
0,         91,         91,        1,    38016, 0xb2d5ad04
0,         92,         92,        1,    38016, 0x28959c5a
0,         93,         93,        1,    38016, 0x7b1d7c65
0,         94,         94,        1,    38016, 0x357e79cd
0,         95,         95,        1,    38016, 0x08f57396
0,         96,         96,        1,    38016, 0xe59973b8
0,         97,         97,        1,    38016, 0x288a9c28
0,         98,         98,        1,    38016, 0x09a4a82f
0,         99,         99,        1,    38016, 0x61b5a518
0,        100,        100,        1,    38016, 0xddbfb88d
0,        101,        101,        1,    38016, 0x14b5a41e
0,        102,        102,        1,    38016, 0x56588add
0,        103,        103,        1,    38016, 0x7e3890c1
0,        104,        104,        1,    38016, 0xbb1eb4df
0,        105,        105,        1,    38016, 0x3b34a7d8
0,        106,        106,        1,    38016, 0xe15ddc56
0,        107,        107,        1,    38016, 0x9ed7ff21
0,        108,        108,        1,    38016, 0x03200458
0,        109,        109,        1,    38016, 0x74493572
0,        110,        110,        1,    38016, 0x73d14274
0,        111,        111,        1,    38016, 0x02933587
0,        112,        112,        1,    38016, 0x5ea74e05
0,        113,        113,        1,    38016, 0xd73d303e
0,        114,        114,        1,    38016, 0x0a17f1ea
0,        115,        115,        1,    38016, 0x915f0dcd
0,        116,        116,        1,    38016, 0xca041a88
0,        117,        117,        1,    38016, 0xc6a303b2
0,        118,        118,        1,    38016, 0x2c903df2
0,        119,        119,        1,    38016, 0x2dd04691
0,        120,        120,        1,    38016, 0xfe783551
0,        121,        121,        1,    38016, 0x900c419c
0,        122,        122,        1,    38016, 0x01b92a15
0,        123,        123,        1,    38016, 0xcce4e851
0,        124,        124,        1,    38016, 0x0167d6f6
0,        125,        125,        1,    38016, 0x023eb3fa
0,        126,        126,        1,    38016, 0xafc29caa
0,        127,        127,        1,    38016, 0xf205b88c
0,        128,        128,        1,    38016, 0x5518cc46
0,        129,        129,        1,    38016, 0x64cdd1d5
0,        130,        130,        1,    38016, 0x8e9eecb4
0,        131,        131,        1,    38016, 0xd1e0e2f8
0,        132,        132,        1,    38016, 0xb849cf3c
0,        133,        133,        1,    38016, 0xb5e4d916
0,        134,        134,        1,    38016, 0xc6c5da7e
0,        135,        135,        1,    38016, 0xcbcda68d
0,        136,        136,        1,    38016, 0x21d7bd73
0,        137,        137,        1,    38016, 0x6737b4b9
0,        138,        138,        1,    38016, 0x379f9a5f
0,        139,        139,        1,    38016, 0xa13da6cc
0,        140,        140,        1,    38016, 0x06fc941a
0,        141,        141,        1,    38016, 0x78c57e95
0,        142,        142,        1,    38016, 0x2f6674d4
0,        143,        143,        1,    38016, 0x37776db9
0,        144,        144,        1,    38016, 0x257268db
0,        145,        145,        1,    38016, 0x1dbe7e72
0,        146,        146,        1,    38016, 0x2cb96bb0
0,        147,        147,        1,    38016, 0x46a840f2
0,        148,        148,        1,    38016, 0x95951fd6
0,        149,        149,        1,    38016, 0x627ef7b2
0,        150,        150,        1,    38016, 0xa5b0b2d3
0,        151,        151,        1,    38016, 0x69fdcae9
0,        152,        152,        1,    38016, 0x0c25c873
0,        153,        153,        1,    38016, 0x3533a2cc
0,        154,        154,        1,    38016, 0x3a74b6c2
0,        155,        155,        1,    38016, 0x9d1dcbc1
0,        156,        156,        1,    38016, 0xce33cf86
0,        157,        157,        1,    38016, 0xf34201f5
0,        158,        158,        1,    38016, 0xab5f2e2b
0,        159,        159,        1,    38016, 0xf062405d
0,        160,        160,        1,    38016, 0xe7f85f7c
0,        161,        161,        1,    38016, 0x684f4ee4
0,        162,        162,        1,    38016, 0x41b83014
0,        163,        163,        1,    38016, 0x70142f5f
0,        164,        164,        1,    38016, 0x3cb229b1
0,        165,        165,        1,    38016, 0x6bd1f24c
0,        166,        166,        1,    38016, 0x9366ec77
0,        167,        167,        1,    38016, 0x6af0c1ec
0,        168,        168,        1,    38016, 0xb11a9005
0,        169,        169,        1,    38016, 0x83e390b7
0,        170,        170,        1,    38016, 0x97679ab5
0,        171,        171,        1,    38016, 0xabe3b114
0,        172,        172,        1,    38016, 0x2efed19f
0,        173,        173,        1,    38016, 0x18eddb2e
0,        174,        174,        1,    38016, 0x0a37c6fb
0,        175,        175,        1,    38016, 0xddb0a2fe
0,        176,        176,        1,    38016, 0xf8627091
0,        177,        177,        1,    38016, 0x97123074
0,        178,        178,        1,    38016, 0x33af3174
0,        179,        179,        1,    38016, 0x5caa22fe
0,        180,        180,        1,    38016, 0xa203eccf
0,        181,        181,        1,    38016, 0x506eee0c
0,        182,        182,        1,    38016, 0x2066d541
0,        183,        183,        1,    38016, 0xe08acab1
0,        184,        184,        1,    38016, 0x6740ecc4
0,        185,        185,        1,    38016, 0x954dfd6d
0,        186,        186,        1,    38016, 0xbd7ffef8
0,        187,        187,        1,    38016, 0x629f2cca
0,        188,        188,        1,    38016, 0xebd92f12
0,        189,        189,        1,    38016, 0xe5bd297f
0,        190,        190,        1,    38016, 0xcb2be670
0,        191,        191,        1,    38016, 0x51d7b529
0,        192,        192,        1,    38016, 0x95d7ab30
0,        193,        193,        1,    38016, 0x18e3df99
0,        194,        194,        1,    38016, 0xae3af726
0,        195,        195,        1,    38016, 0x9b831ee3
0,        196,        196,        1,    38016, 0x3c614e45
0,        197,        197,        1,    38016, 0x3c0a600c
0,        198,        198,        1,    38016, 0xdade838b
0,        199,        199,        1,    38016, 0xbbe3a0a7
0,        200,        200,        1,    38016, 0xd4d5b780
0,        201,        201,        1,    38016, 0xceebb4b7
0,        202,        202,        1,    38016, 0x1a8ccbb3
0,        203,        203,        1,    38016, 0x95dccfab
0,        204,        204,        1,    38016, 0xea9bc737
0,        205,        205,        1,    38016, 0xa0f6d561
0,        206,        206,        1,    38016, 0x7877d698
0,        207,        207,        1,    38016, 0xd6aad54c
0,        208,        208,        1,    38016, 0xca62c8b7
0,        209,        209,        1,    38016, 0xebc9ae1c
0,        210,        210,        1,    38016, 0x46c96194
0,        211,        211,        1,    38016, 0x61197fc4
0,        212,        212,        1,    38016, 0x9ae97570
0,        213,        213,        1,    38016, 0x7cd254da
0,        214,        214,        1,    38016, 0xe4816953
0,        215,        215,        1,    38016, 0x68685b2c
0,        216,        216,        1,    38016, 0x08d93f79
0,        217,        217,        1,    38016, 0xb4cc526b
0,        218,        218,        1,    38016, 0xc0d253d9
0,        219,        219,        1,    38016, 0x95b83d64
0,        220,        220,        1,    38016, 0xadf7454f
0,        221,        221,        1,    38016, 0xaa1d339b
0,        222,        222,        1,    38016, 0xae0417f8
0,        223,        223,        1,    38016, 0x09d2294d
0,        224,        224,        1,    38016, 0xbd892e9d
0,        225,        225,        1,    38016, 0xbccd0f97
0,        226,        226,        1,    38016, 0x03c13bd3
0,        227,        227,        1,    38016, 0x09d045d7
0,        228,        228,        1,    38016, 0xaa484278
0,        229,        229,        1,    38016, 0x054b8639
0,        230,        230,        1,    38016, 0x45e29e62
0,        231,        231,        1,    38016, 0x38bbb067
0,        232,        232,        1,    38016, 0x9f5cfc30
0,        233,        233,        1,    38016, 0x38551b76
0,        234,        234,        1,    38016, 0x3e1b18ee
0,        235,        235,        1,    38016, 0x7baf4e34
0,        236,        236,        1,    38016, 0xff6458d1
0,        237,        237,        1,    38016, 0xb7963c49
0,        238,        238,        1,    38016, 0xdaee3f6a
0,        239,        239,        1,    38016, 0xc88e09c9
0,        240,        240,        1,    38016, 0x88a7de38
0,        241,        241,        1,    38016, 0x9e81cb62
0,        242,        242,        1,    38016, 0x84d0aca7
0,        243,        243,        1,    38016, 0x3312f41e
0,        244,        244,        1,    38016, 0x550065dc
0,        245,        245,        1,    38016, 0x7e88d07e
0,        246,        246,        1,    38016, 0x9370ed4f
0,        247,        247,        1,    38016, 0xd9c9d592
0,        248,        248,        1,    38016, 0xec7589ce
0,        249,        249,        1,    38016, 0xeca71251
0,        250,        250,        1,    38016, 0xf183b951
0,        251,        251,        1,    38016, 0x9a1b740a
0,        252,        252,        1,    38016, 0x97ea5ffc
0,        253,        253,        1,    38016, 0x058dc572
0,        254,        254,        1,    38016, 0xae44345a
0,        255,        255,        1,    38016, 0xef22c82e
0,        256,        256,        1,    38016, 0x8364d583
0,        257,        257,        1,    38016, 0x2f725dfa
0,        258,        258,        1,    38016, 0x5eda3160
0,        259,        259,        1,    38016, 0x4a464613
0,        260,        260,        1,    38016, 0x447f444d
0,        261,        261,        1,    38016, 0x076b3dd8
0,        262,        262,        1,    38016, 0x690f58de
0,        263,        263,        1,    38016, 0xf4635e91
0,        264,        264,        1,    38016, 0xd5db44e7
0,        265,        265,        1,    38016, 0xced25176
0,        266,        266,        1,    38016, 0x227a2f9a
0,        267,        267,        1,    38016, 0x72100520
0,        268,        268,        1,    38016, 0x6549f9b4
0,        269,        269,        1,    38016, 0x3f77cef4
0,        270,        270,        1,    38016, 0x3d1ba72f
0,        271,        271,        1,    38016, 0xa1dd85d2
0,        272,        272,        1,    38016, 0x9a35655e
0,        273,        273,        1,    38016, 0xdc900dc6
0,        274,        274,        1,    38016, 0xca05d5cb
0,        275,        275,        1,    38016, 0xeff0be86
0,        276,        276,        1,    38016, 0xdcceb22e
0,        277,        277,        1,    38016, 0x5952d133
0,        278,        278,        1,    38016, 0x3ab3facb
0,        279,        279,        1,    38016, 0xdb8d4de4
0,        280,        280,        1,    38016, 0x0afc170d
0,        281,        281,        1,    38016, 0xd14ddc59
0,        282,        282,        1,    38016, 0xbabf89eb
0,        283,        283,        1,    38016, 0x09d38f7b
0,        284,        284,        1,    38016, 0xe4805dba
0,        285,        285,        1,    38016, 0x4d919dcf
0,        286,        286,        1,    38016, 0x3e8c60be
0,        287,        287,        1,    38016, 0x6c1fa94b
0,        288,        288,        1,    38016, 0x6b68a320
0,        289,        289,        1,    38016, 0x9de774f6
0,        290,        290,        1,    38016, 0x38d0ecc6
0,        291,        291,        1,    38016, 0x0623207f
0,        292,        292,        1,    38016, 0x36429915
0,        293,        293,        1,    38016, 0x659fdd42
0,        294,        294,        1,    38016, 0x59c93475
0,        295,        295,        1,    38016, 0xecd1200d
0,        296,        296,        1,    38016, 0x3b2af9c2
0,        297,        297,        1,    38016, 0xd00600da
0,        298,        298,        1,    38016, 0xb0bc21ee
0,        299,        299,        1,    38016, 0xc11f3ec2
